# 3ds Max Wavefront OBJ Exporter v0.99 - (c)2007 guruware
# 创建的文件:19.12.2023 14:26:55

mtllib 1.mtl

#
# object Box010
#

v  -48.0000 -0.0000 -48.0000
v  -50.0000 -2.0000 -50.0000
v  -50.0000 -2.0000 50.0000
v  -48.0000 0.0000 48.0000
v  50.0000 -2.0000 50.0000
v  48.0000 0.0000 48.0000
v  50.0000 -2.0000 -50.0000
v  48.0000 -0.0000 -48.0000
# 8 vertices

vn -0.3002 0.9054 -0.3002
vn -0.6891 -0.2242 -0.6891
vn -0.6891 -0.2242 0.6891
vn -0.3002 0.9054 0.3002
vn 0.6891 -0.2242 0.6891
vn 0.3002 0.9054 0.3002
vn 0.6891 -0.2242 -0.6891
vn 0.3002 0.9054 -0.3002
# 8 vertex normals

vt 0.0186 -0.3132 -0.4800
vt -0.0014 -0.3332 -0.5000
vt -0.0014 -0.3332 0.5000
vt 0.0186 -0.3132 0.4800
vt 0.9986 -0.3332 0.5000
vt 0.9786 -0.3132 0.4800
vt 0.9986 -0.3332 -0.5000
vt 0.9786 -0.3132 -0.4800
vt 0.0039 0.9961 0.0000
vt 0.0039 0.0000 0.0000
vt 1.0000 0.0000 0.0000
vt 1.0000 0.9961 0.0000
# 12 texture coords

o Box010
g Box010
usemtl wire_088088225
s off
f 1/1/1 2/2/2 3/3/3 4/4/4 
f 5/5/5 6/6/6 4/4/4 3/3/3 
f 6/6/6 5/5/5 7/7/7 8/8/8 
f 7/7/7 2/2/2 1/1/1 8/8/8 
f 4/4/4 6/6/6 8/8/8 1/1/1 
f 3/9/3 2/10/2 7/11/7 5/12/5 
# 6 polygons

