# Blender 4.0.2
# www.blender.org
o Cube
v 1.500000 0.500000 -1.500000
v 1.500000 -0.500000 -1.500000
v 1.500000 0.500000 1.500000
v 1.500000 -0.500000 1.500000
v -1.500000 0.500000 -1.500000
v -1.500000 -0.500000 -1.500000
v -1.500000 0.500000 1.500000
v -1.500000 -0.500000 1.500000
v -1.500000 0.500000 -0.000000
v -1.471178 0.500000 -0.292636
v -1.471178 0.500000 0.292635
v -1.247204 0.500000 -0.833355
v -1.247204 0.500000 0.833355
v -1.385819 0.500000 -0.574025
v -1.385819 0.500000 0.574025
v -0.833355 0.500000 -1.247205
v -0.292636 0.500000 -1.471178
v -0.574025 0.500000 -1.385819
v 0.574025 0.500000 -1.385819
v 0.292636 0.500000 -1.471178
v 1.060660 0.500000 -1.060660
v 0.833355 0.500000 -1.247205
v 0.000000 0.500000 -1.500000
v -1.060660 0.500000 -1.060660
v -1.060660 0.500000 1.060660
v -0.574025 0.500000 1.385819
v -0.833355 0.500000 1.247204
v -0.292636 0.500000 1.471178
v 0.000000 0.500000 1.500000
v 0.833355 0.500000 1.247204
v 0.574025 0.500000 1.385819
v 0.292636 0.500000 1.471178
v 1.247204 0.500000 -0.833355
v 1.247204 0.500000 0.833355
v 1.500000 0.500000 -0.000000
v 1.471178 0.500000 -0.292636
v 1.471178 0.500000 0.292635
v 1.385819 0.500000 0.574025
v 1.385819 0.500000 -0.574025
v 1.060660 0.500000 1.060660
v -1.500000 -0.500000 0.000000
v -1.060660 -0.500000 -1.060660
v -0.574025 -0.500000 -1.385819
v -0.292636 -0.500000 -1.471178
v -0.833355 -0.500000 -1.247204
v 0.000000 -0.500000 -1.500000
v 0.833355 -0.500000 -1.247204
v 0.574025 -0.500000 -1.385819
v 0.292636 -0.500000 -1.471178
v 1.247204 -0.500000 -0.833355
v 1.247204 -0.500000 0.833355
v 1.500000 -0.500000 0.000000
v 1.471178 -0.500000 -0.292635
v 1.471178 -0.500000 0.292636
v 1.385819 -0.500000 0.574025
v 1.060660 -0.500000 -1.060660
v 1.385819 -0.500000 -0.574025
v -1.471178 -0.500000 0.292636
v -1.471178 -0.500000 -0.292635
v -1.247204 -0.500000 -0.833355
v -1.247204 -0.500000 0.833355
v -1.385819 -0.500000 -0.574025
v -1.385819 -0.500000 0.574025
v -0.833355 -0.500000 1.247205
v -0.292636 -0.500000 1.471178
v -0.574025 -0.500000 1.385819
v 0.574025 -0.500000 1.385819
v 0.292636 -0.500000 1.471178
v 1.060660 -0.500000 1.060660
v 0.833355 -0.500000 1.247205
v 0.000000 -0.500000 1.500000
v -1.060660 -0.500000 1.060660
vn -0.0000 1.0000 -0.0000
vn -0.0000 -0.0000 1.0000
vn -1.0000 -0.0000 -0.0000
vn -0.0000 -1.0000 -0.0000
vn 1.0000 -0.0000 -0.0000
vn -0.0000 -0.0000 -1.0000
vn -0.0980 -0.0000 0.9952
vn -0.2903 -0.0000 0.9569
vn -0.4714 -0.0000 0.8819
vn -0.6344 -0.0000 0.7730
vn -0.7730 -0.0000 0.6344
vn -0.8819 -0.0000 0.4714
vn -0.9569 -0.0000 0.2903
vn -0.9952 -0.0000 0.0980
vn -0.9952 -0.0000 -0.0980
vn -0.9569 -0.0000 -0.2903
vn -0.8819 -0.0000 -0.4714
vn -0.7730 -0.0000 -0.6344
vn -0.6344 -0.0000 -0.7730
vn -0.4714 -0.0000 -0.8819
vn -0.2903 -0.0000 -0.9569
vn -0.0980 -0.0000 -0.9952
vn 0.0980 -0.0000 -0.9952
vn 0.2903 -0.0000 -0.9569
vn 0.4714 -0.0000 -0.8819
vn 0.6344 -0.0000 -0.7730
vn 0.7730 -0.0000 -0.6344
vn 0.8819 -0.0000 -0.4714
vn 0.9569 -0.0000 -0.2903
vn 0.9952 -0.0000 -0.0980
vn 0.9952 -0.0000 0.0980
vn 0.9569 -0.0000 0.2903
vn 0.8819 -0.0000 0.4714
vn 0.7730 -0.0000 0.6344
vn 0.6344 -0.0000 0.7730
vn 0.4714 -0.0000 0.8819
vn 0.2903 -0.0000 0.9569
vn 0.0980 -0.0000 0.9952
vt 3.999282 1.499740
vt 3.999282 2.999481
vt 0.999802 2.999481
vt 0.999802 1.499740
vt 1.028619 1.792325
vt 1.113963 2.073666
vt 1.252553 2.332952
vt 1.439065 2.560217
vt 1.666331 2.746729
vt 1.925616 2.885319
vt 2.206957 2.970664
vt 2.499542 2.999481
vt 2.792127 2.970664
vt 3.073468 2.885319
vt 3.332753 2.746729
vt 3.560019 2.560217
vt 3.746531 2.332952
vt 3.885121 2.073666
vt 3.970465 1.792325
vt 0.999802 0.000000
vt 3.999282 0.000000
vt 3.970465 1.207156
vt 3.885122 0.925815
vt 3.746531 0.666529
vt 3.560019 0.439264
vt 3.332753 0.252752
vt 3.073468 0.114161
vt 2.792127 0.028817
vt 2.499542 0.000000
vt 2.206957 0.028817
vt 1.925616 0.114161
vt 1.666331 0.252752
vt 1.439065 0.439264
vt 1.252553 0.666529
vt 1.113963 0.925815
vt 1.028619 1.207155
vt 0.000158 2.999481
vt 0.999885 2.999481
vt 0.999885 5.998961
vt 0.000158 5.998961
vt 0.999885 -2.999480
vt 0.000158 -2.999480
vt 0.000158 -4.499221
vt 0.999885 -4.499221
vt 0.000158 -5.998961
vt 0.999885 -5.998961
vt 0.000241 1.499740
vt 0.000241 2.999481
vt -2.999240 2.999481
vt -2.999240 1.499740
vt -2.970423 1.792325
vt -2.885079 2.073666
vt -2.746488 2.332952
vt -2.559976 2.560217
vt -2.332711 2.746729
vt -2.073426 2.885320
vt -1.792084 2.970664
vt -1.499499 2.999481
vt -1.206915 2.970664
vt -0.925574 2.885320
vt -0.666288 2.746729
vt -0.439023 2.560217
vt -0.252511 2.332952
vt -0.113920 2.073666
vt -0.028576 1.792325
vt -2.999240 0.000000
vt 0.000241 0.000000
vt -0.028576 1.207156
vt -0.113920 0.925815
vt -0.252511 0.666529
vt -0.439023 0.439264
vt -0.666288 0.252752
vt -0.925574 0.114161
vt -1.206914 0.028817
vt -1.499499 0.000000
vt -1.792084 0.028817
vt -2.073426 0.114161
vt -2.332711 0.252752
vt -2.559976 0.439264
vt -2.746488 0.666529
vt -2.885079 0.925815
vt -2.970423 1.207156
vt 0.999885 1.499740
vt 0.000158 1.499740
vt 0.000158 0.000000
vt 0.999885 0.000000
vt 4.250000 0.000000
vt 4.250000 1.000000
vt 4.500000 1.000000
vt 4.500000 0.000000
vt 4.000000 0.000000
vt 4.000000 1.000000
vt 3.750000 0.000000
vt 3.750000 1.000000
vt 3.500000 0.000000
vt 3.500000 1.000000
vt 3.250000 0.000000
vt 3.250000 1.000000
vt 3.000000 0.000000
vt 3.000000 1.000000
vt 2.750000 0.000000
vt 2.750000 1.000000
vt 2.500000 1.000000
vt 2.500000 0.000000
vt 2.250000 0.000000
vt 2.250000 1.000000
vt 2.000000 0.000000
vt 2.000000 1.000000
vt 1.750000 0.000000
vt 1.750000 1.000000
vt 1.500000 1.000000
vt 1.500000 0.000000
vt 1.250000 1.000000
vt 1.250000 0.000000
vt 1.000000 1.000000
vt 1.000000 0.000000
vt 0.750000 1.000000
vt 0.750000 0.000000
vt 0.500000 1.000000
vt 0.500000 0.000000
vt 0.250000 1.000000
vt 0.250000 0.000000
vt 0.000000 1.000000
vt 0.000000 0.000000
vt -0.250000 1.000000
vt -0.250000 0.000000
vt -0.500000 1.000000
vt -0.500000 0.000000
vt -0.750000 1.000000
vt -0.750000 0.000000
vt -1.000000 1.000000
vt -1.000000 0.000000
vt -1.250000 1.000000
vt -1.250000 0.000000
vt -1.500000 1.000000
vt -1.500000 0.000000
vt -1.750000 1.000000
vt -1.750000 0.000000
vt -2.000000 1.000000
vt -2.000000 0.000000
vt -2.250000 1.000000
vt -2.250000 0.000000
vt -2.500000 0.000000
vt -2.500000 1.000000
vt -2.750000 0.000000
vt -2.750000 1.000000
vt -3.000000 0.000000
vt -3.000000 1.000000
vt -3.250000 0.000000
vt -3.250000 1.000000
vt -3.500000 0.000000
vt -3.500000 1.000000
s 0
f 9/1/1 7/2/1 3/3/1 35/4/1 37/5/1 38/6/1 34/7/1 40/8/1 30/9/1 31/10/1 32/11/1 29/12/1 28/13/1 26/14/1 27/15/1 25/16/1 13/17/1 15/18/1 11/19/1
f 1/20/1 5/21/1 9/1/1 10/22/1 14/23/1 12/24/1 24/25/1 16/26/1 18/27/1 17/28/1 23/29/1 20/30/1 19/31/1 22/32/1 21/33/1 33/34/1 39/35/1 36/36/1 35/4/1
f 4/37/2 3/38/2 7/39/2 8/40/2
f 5/41/3 6/42/3 41/43/3 9/44/3
f 41/43/3 8/45/3 7/46/3 9/44/3
f 52/47/4 4/48/4 8/49/4 41/50/4 58/51/4 63/52/4 61/53/4 72/54/4 64/55/4 66/56/4 65/57/4 71/58/4 68/59/4 67/60/4 70/61/4 69/62/4 51/63/4 55/64/4 54/65/4
f 41/50/4 6/66/4 2/67/4 52/47/4 53/68/4 57/69/4 50/70/4 56/71/4 47/72/4 48/73/4 49/74/4 46/75/4 44/76/4 43/77/4 45/78/4 42/79/4 60/80/4 62/81/4 59/82/4
f 35/83/5 3/38/5 4/37/5 52/84/5
f 52/84/5 2/85/5 1/86/5 35/83/5
f 6/42/6 5/41/6 1/86/6 2/85/6
f 49/87/7 20/88/7 23/89/7 46/90/7
f 48/91/8 19/92/8 20/88/8 49/87/8
f 47/93/9 22/94/9 19/92/9 48/91/9
f 56/95/10 21/96/10 22/94/10 47/93/10
f 50/97/11 33/98/11 21/96/11 56/95/11
f 57/99/12 39/100/12 33/98/12 50/97/12
f 53/101/13 36/102/13 39/100/13 57/99/13
f 35/103/14 36/102/14 53/101/14 52/104/14
f 52/104/15 54/105/15 37/106/15 35/103/15
f 55/107/16 38/108/16 37/106/16 54/105/16
f 51/109/17 34/110/17 38/108/17 55/107/17
f 40/111/18 34/110/18 51/109/18 69/112/18
f 30/113/19 40/111/19 69/112/19 70/114/19
f 31/115/20 30/113/20 70/114/20 67/116/20
f 32/117/21 31/115/21 67/116/21 68/118/21
f 29/119/22 32/117/22 68/118/22 71/120/22
f 28/121/23 29/119/23 71/120/23 65/122/23
f 26/123/24 28/121/24 65/122/24 66/124/24
f 27/125/25 26/123/25 66/124/25 64/126/25
f 25/127/26 27/125/26 64/126/26 72/128/26
f 13/129/27 25/127/27 72/128/27 61/130/27
f 15/131/28 13/129/28 61/130/28 63/132/28
f 11/133/29 15/131/29 63/132/29 58/134/29
f 9/135/30 11/133/30 58/134/30 41/136/30
f 10/137/31 9/135/31 41/136/31 59/138/31
f 14/139/32 10/137/32 59/138/32 62/140/32
f 12/141/33 14/139/33 62/140/33 60/142/33
f 42/143/34 24/144/34 12/141/34 60/142/34
f 45/145/35 16/146/35 24/144/35 42/143/35
f 43/147/36 18/148/36 16/146/36 45/145/36
f 44/149/37 17/150/37 18/148/37 43/147/37
f 46/151/38 23/152/38 17/150/38 44/149/38
